<svg width="70" height="70" viewBox="0 0 70 70" fill="none" xmlns="http://www.w3.org/2000/svg">
<path fill-rule="evenodd" clip-rule="evenodd" d="M35 70C54.33 70 70 54.33 70 35C70 15.67 54.33 0 35 0C15.67 0 0 15.67 0 35C0 54.33 15.67 70 35 70ZM37.9738 14.5852C37.9738 13.6394 36.7601 13.2505 36.2104 14.0201L19.6274 37.2363C19.1678 37.8799 19.6278 38.7736 20.4185 38.7736H30.196V55.1843C30.196 56.1301 31.4095 56.519 31.9594 55.7494L48.5422 32.5333C49.0019 31.8897 48.542 30.9958 47.7512 30.9958H37.9738V14.5852Z" fill="#1C1C1C"/>
</svg>
